<svg width="512" height="512" viewBox="0 0 512 512" fill="none" xmlns="http://www.w3.org/2000/svg">
  <rect width="512" height="512" rx="120" fill="#1E3A8A"/>
  <path d="M160 188C160 171.431 173.431 158 190 158H322C338.569 158 352 171.431 352 188V230C352 284.124 308.124 328 254 328C199.876 328 156 284.124 156 230V188H160Z" fill="#E2E8F0"/>
  <path d="M256 120C218.444 120 188 150.444 188 188V206H224V188C224 170.327 238.327 156 256 156C273.673 156 288 170.327 288 188V206H324V188C324 150.444 293.556 120 256 120Z" fill="#10B981"/>
  <path d="M192 238H320V256C320 291.346 291.346 320 256 320C220.654 320 192 291.346 192 256V238Z" fill="#10B981"/>
  <rect x="238" y="216" width="36" height="76" rx="18" fill="#1E3A8A"/>
  <circle cx="256" cy="216" r="18" fill="#E2E8F0"/>
</svg>
